<svg width="80" height="85" viewBox="0 0 80 85" fill="none" xmlns="http://www.w3.org/2000/svg">
<path d="M30.5455 97H6.88636V27.1818H31.0227C37.9545 27.1818 43.9091 28.5795 48.8864 31.375C53.8864 34.1477 57.7273 38.1364 60.4091 43.3409C63.0909 48.5455 64.4318 54.7727 64.4318 62.0227C64.4318 69.2955 63.0795 75.5455 60.375 80.7727C57.6932 86 53.8182 90.0114 48.75 92.8068C43.7045 95.6023 37.6364 97 30.5455 97ZM19.5341 86.0568H29.9318C34.7955 86.0568 38.8523 85.1705 42.1023 83.3977C45.3523 81.6023 47.7955 78.9318 49.4318 75.3864C51.0682 71.8182 51.8864 67.3636 51.8864 62.0227C51.8864 56.6818 51.0682 52.25 49.4318 48.7273C47.7955 45.1818 45.375 42.5341 42.1705 40.7841C38.9886 39.0114 35.0341 38.125 30.3068 38.125H19.5341V86.0568ZM76.4489 97V27.1818H121.858V37.7841H89.0966V56.7386H119.506V67.3409H89.0966V86.3977H122.131V97H76.4489ZM134.761 97V27.1818H160.943C166.307 27.1818 170.807 28.1136 174.443 29.9773C178.102 31.8409 180.864 34.4545 182.727 37.8182C184.614 41.1591 185.557 45.0568 185.557 49.5114C185.557 53.9886 184.602 57.875 182.693 61.1705C180.807 64.4432 178.023 66.9773 174.341 68.7727C170.659 70.5455 166.136 71.4318 160.773 71.4318H142.125V60.9318H159.068C162.205 60.9318 164.773 60.5 166.773 59.6364C168.773 58.75 170.25 57.4659 171.205 55.7841C172.182 54.0795 172.67 51.9886 172.67 49.5114C172.67 47.0341 172.182 44.9205 171.205 43.1705C170.227 41.3977 168.739 40.0568 166.739 39.1477C164.739 38.2159 162.159 37.75 159 37.75H147.409V97H134.761ZM170.83 65.3636L188.114 97H174L157.023 65.3636H170.83ZM256.96 50.7386H244.21C243.847 48.6477 243.176 46.7955 242.199 45.1818C241.222 43.5455 240.006 42.1591 238.551 41.0227C237.097 39.8864 235.438 39.0341 233.574 38.4659C231.733 37.875 229.744 37.5795 227.608 37.5795C223.813 37.5795 220.449 38.5341 217.517 40.4432C214.585 42.3295 212.29 45.1023 210.631 48.7614C208.972 52.3977 208.142 56.8409 208.142 62.0909C208.142 67.4318 208.972 71.9318 210.631 75.5909C212.313 79.2273 214.608 81.9773 217.517 83.8409C220.449 85.6818 223.801 86.6023 227.574 86.6023C229.665 86.6023 231.619 86.3295 233.438 85.7841C235.278 85.2159 236.926 84.3864 238.381 83.2955C239.858 82.2045 241.097 80.8636 242.097 79.2727C243.119 77.6818 243.824 75.8636 244.21 73.8182L256.96 73.8864C256.483 77.2045 255.449 80.3182 253.858 83.2273C252.29 86.1364 250.233 88.7045 247.688 90.9318C245.142 93.1364 242.165 94.8636 238.756 96.1136C235.347 97.3409 231.563 97.9545 227.403 97.9545C221.267 97.9545 215.79 96.5341 210.972 93.6932C206.153 90.8523 202.358 86.75 199.585 81.3864C196.813 76.0227 195.426 69.5909 195.426 62.0909C195.426 54.5682 196.824 48.1364 199.619 42.7955C202.415 37.4318 206.222 33.3295 211.04 30.4886C215.858 27.6477 221.313 26.2273 227.403 26.2273C231.29 26.2273 234.903 26.7727 238.244 27.8636C241.585 28.9545 244.563 30.5568 247.176 32.6705C249.79 34.7614 251.938 37.3295 253.619 40.375C255.324 43.3977 256.438 46.8523 256.96 50.7386Z" fill="#FFA500"/>
<path d="M55.3906 138H46.4134V108.909H55.7884C58.6103 108.909 61.0251 109.491 63.0327 110.656C65.0402 111.812 66.5791 113.473 67.6491 115.642C68.7192 117.801 69.2543 120.386 69.2543 123.398C69.2543 126.428 68.7145 129.037 67.6349 131.224C66.5554 133.402 64.9834 135.079 62.919 136.253C60.8546 137.418 58.3452 138 55.3906 138ZM49.9361 134.875H55.1634C57.5687 134.875 59.562 134.411 61.1435 133.483C62.7249 132.555 63.9039 131.234 64.6804 129.52C65.4569 127.806 65.8452 125.765 65.8452 123.398C65.8452 121.049 65.4616 119.027 64.6946 117.332C63.9276 115.628 62.7817 114.321 61.2571 113.412C59.7325 112.493 57.8338 112.034 55.5611 112.034H49.9361V134.875ZM74.7088 138V116.182H77.9474V119.477H78.1747C78.5724 118.398 79.2921 117.522 80.3338 116.849C81.3755 116.177 82.5497 115.841 83.8565 115.841C84.1027 115.841 84.4105 115.846 84.7798 115.855C85.1491 115.865 85.4285 115.879 85.6179 115.898V119.307C85.5043 119.278 85.2438 119.236 84.8366 119.179C84.4389 119.113 84.0175 119.08 83.5724 119.08C82.5118 119.08 81.5649 119.302 80.7315 119.747C79.9077 120.183 79.2543 120.789 78.7713 121.565C78.2978 122.332 78.0611 123.208 78.0611 124.193V138H74.7088ZM89.5348 138.227C88.834 138.227 88.2327 137.976 87.7308 137.474C87.2289 136.973 86.978 136.371 86.978 135.67C86.978 134.97 87.2289 134.368 87.7308 133.866C88.2327 133.365 88.834 133.114 89.5348 133.114C90.2356 133.114 90.8369 133.365 91.3388 133.866C91.8407 134.368 92.0916 134.97 92.0916 135.67C92.0916 136.134 91.9732 136.561 91.7365 136.949C91.5092 137.337 91.2015 137.65 90.8132 137.886C90.4344 138.114 90.0083 138.227 89.5348 138.227ZM109.812 138V108.909H127.369V112.034H113.335V121.864H126.46V124.989H113.335V134.875H127.596V138H109.812ZM132.638 138V135.443L145.025 119.534V119.307H133.036V116.182H149.343V118.852L137.298 134.648V134.875H149.741V138H132.638ZM154.904 138V116.182H158.143V119.477H158.37C158.768 118.398 159.487 117.522 160.529 116.849C161.571 116.177 162.745 115.841 164.052 115.841C164.298 115.841 164.606 115.846 164.975 115.855C165.344 115.865 165.624 115.879 165.813 115.898V119.307C165.7 119.278 165.439 119.236 165.032 119.179C164.634 119.113 164.213 119.08 163.768 119.08C162.707 119.08 161.76 119.302 160.927 119.747C160.103 120.183 159.45 120.789 158.967 121.565C158.493 122.332 158.256 123.208 158.256 124.193V138H154.904ZM176.207 138.511C174.825 138.511 173.57 138.251 172.443 137.73C171.316 137.2 170.421 136.438 169.759 135.443C169.096 134.439 168.764 133.227 168.764 131.807C168.764 130.557 169.01 129.544 169.503 128.767C169.995 127.981 170.653 127.366 171.477 126.92C172.301 126.475 173.21 126.144 174.205 125.926C175.208 125.699 176.217 125.519 177.23 125.386C178.556 125.216 179.631 125.088 180.455 125.003C181.288 124.908 181.894 124.752 182.273 124.534C182.661 124.316 182.855 123.937 182.855 123.398V123.284C182.855 121.883 182.472 120.794 181.705 120.017C180.947 119.241 179.796 118.852 178.253 118.852C176.652 118.852 175.398 119.203 174.489 119.903C173.58 120.604 172.94 121.352 172.571 122.148L169.389 121.011C169.957 119.686 170.715 118.653 171.662 117.915C172.618 117.167 173.66 116.646 174.787 116.352C175.923 116.049 177.041 115.898 178.139 115.898C178.84 115.898 179.645 115.983 180.554 116.153C181.473 116.314 182.358 116.651 183.21 117.162C184.072 117.673 184.787 118.445 185.355 119.477C185.923 120.509 186.207 121.892 186.207 123.625V138H182.855V135.045H182.685C182.457 135.519 182.079 136.026 181.548 136.565C181.018 137.105 180.313 137.564 179.432 137.943C178.551 138.322 177.476 138.511 176.207 138.511ZM176.719 135.5C178.045 135.5 179.162 135.24 180.071 134.719C180.99 134.198 181.681 133.526 182.145 132.702C182.618 131.878 182.855 131.011 182.855 130.102V127.034C182.713 127.205 182.401 127.361 181.918 127.503C181.444 127.635 180.895 127.754 180.27 127.858C179.654 127.953 179.053 128.038 178.466 128.114C177.888 128.18 177.42 128.237 177.06 128.284C176.188 128.398 175.374 128.582 174.616 128.838C173.868 129.084 173.262 129.458 172.798 129.96C172.344 130.453 172.116 131.125 172.116 131.977C172.116 133.142 172.547 134.023 173.409 134.619C174.28 135.206 175.384 135.5 176.719 135.5ZM204.031 138V108.909H213.86C216.133 108.909 217.998 109.297 219.457 110.074C220.915 110.841 221.995 111.897 222.695 113.241C223.396 114.586 223.746 116.116 223.746 117.83C223.746 119.544 223.396 121.063 222.695 122.389C221.995 123.715 220.92 124.757 219.471 125.514C218.022 126.262 216.171 126.636 213.917 126.636H205.962V123.455H213.803C215.356 123.455 216.606 123.227 217.553 122.773C218.51 122.318 219.201 121.674 219.627 120.841C220.063 119.998 220.281 118.994 220.281 117.83C220.281 116.665 220.063 115.647 219.627 114.776C219.192 113.904 218.496 113.232 217.539 112.759C216.583 112.276 215.318 112.034 213.746 112.034H207.553V138H204.031ZM217.724 124.932L224.883 138H220.792L213.746 124.932H217.724ZM231.605 138.227C230.904 138.227 230.303 137.976 229.801 137.474C229.299 136.973 229.048 136.371 229.048 135.67C229.048 134.97 229.299 134.368 229.801 133.866C230.303 133.365 230.904 133.114 231.605 133.114C232.306 133.114 232.907 133.365 233.409 133.866C233.911 134.368 234.162 134.97 234.162 135.67C234.162 136.134 234.044 136.561 233.807 136.949C233.58 137.337 233.272 137.65 232.884 137.886C232.505 138.114 232.079 138.227 231.605 138.227ZM97.2443 170H93.7216C93.5133 168.987 93.1487 168.097 92.6278 167.33C92.1165 166.562 91.4915 165.919 90.7528 165.398C90.0237 164.867 89.214 164.47 88.3239 164.205C87.4337 163.939 86.5057 163.807 85.5398 163.807C83.7784 163.807 82.1828 164.252 80.7528 165.142C79.3324 166.032 78.2008 167.344 77.358 169.077C76.5246 170.81 76.108 172.936 76.108 175.455C76.108 177.973 76.5246 180.099 77.358 181.832C78.2008 183.565 79.3324 184.877 80.7528 185.767C82.1828 186.657 83.7784 187.102 85.5398 187.102C86.5057 187.102 87.4337 186.97 88.3239 186.705C89.214 186.439 90.0237 186.046 90.7528 185.526C91.4915 184.995 92.1165 184.347 92.6278 183.58C93.1487 182.803 93.5133 181.913 93.7216 180.909H97.2443C96.9792 182.396 96.4962 183.726 95.7955 184.901C95.0947 186.075 94.2235 187.074 93.1818 187.898C92.1402 188.712 90.9706 189.332 89.6733 189.759C88.3854 190.185 87.0076 190.398 85.5398 190.398C83.0587 190.398 80.8523 189.792 78.9205 188.58C76.9886 187.367 75.4688 185.644 74.3608 183.409C73.2528 181.174 72.6989 178.523 72.6989 175.455C72.6989 172.386 73.2528 169.735 74.3608 167.5C75.4688 165.265 76.9886 163.542 78.9205 162.33C80.8523 161.117 83.0587 160.511 85.5398 160.511C87.0076 160.511 88.3854 160.724 89.6733 161.151C90.9706 161.577 92.1402 162.202 93.1818 163.026C94.2235 163.84 95.0947 164.834 95.7955 166.009C96.4962 167.173 96.9792 168.504 97.2443 170ZM111.346 190.455C109.376 190.455 107.648 189.986 106.161 189.048C104.684 188.111 103.529 186.799 102.695 185.114C101.871 183.428 101.46 181.458 101.46 179.205C101.46 176.932 101.871 174.948 102.695 173.253C103.529 171.558 104.684 170.241 106.161 169.304C107.648 168.366 109.376 167.898 111.346 167.898C113.316 167.898 115.039 168.366 116.516 169.304C118.003 170.241 119.158 171.558 119.982 173.253C120.816 174.948 121.232 176.932 121.232 179.205C121.232 181.458 120.816 183.428 119.982 185.114C119.158 186.799 118.003 188.111 116.516 189.048C115.039 189.986 113.316 190.455 111.346 190.455ZM111.346 187.443C112.842 187.443 114.073 187.06 115.039 186.293C116.005 185.526 116.72 184.517 117.184 183.267C117.648 182.017 117.88 180.663 117.88 179.205C117.88 177.746 117.648 176.387 117.184 175.128C116.72 173.868 116.005 172.85 115.039 172.074C114.073 171.297 112.842 170.909 111.346 170.909C109.85 170.909 108.619 171.297 107.653 172.074C106.687 172.85 105.972 173.868 105.508 175.128C105.044 176.387 104.812 177.746 104.812 179.205C104.812 180.663 105.044 182.017 105.508 183.267C105.972 184.517 106.687 185.526 107.653 186.293C108.619 187.06 109.85 187.443 111.346 187.443ZM135.213 190.455C133.243 190.455 131.515 189.986 130.028 189.048C128.551 188.111 127.396 186.799 126.562 185.114C125.739 183.428 125.327 181.458 125.327 179.205C125.327 176.932 125.739 174.948 126.562 173.253C127.396 171.558 128.551 170.241 130.028 169.304C131.515 168.366 133.243 167.898 135.213 167.898C137.183 167.898 138.906 168.366 140.384 169.304C141.87 170.241 143.026 171.558 143.849 173.253C144.683 174.948 145.099 176.932 145.099 179.205C145.099 181.458 144.683 183.428 143.849 185.114C143.026 186.799 141.87 188.111 140.384 189.048C138.906 189.986 137.183 190.455 135.213 190.455ZM135.213 187.443C136.709 187.443 137.94 187.06 138.906 186.293C139.872 185.526 140.587 184.517 141.051 183.267C141.515 182.017 141.747 180.663 141.747 179.205C141.747 177.746 141.515 176.387 141.051 175.128C140.587 173.868 139.872 172.85 138.906 172.074C137.94 171.297 136.709 170.909 135.213 170.909C133.717 170.909 132.486 171.297 131.52 172.074C130.554 172.85 129.839 173.868 129.375 175.128C128.911 176.387 128.679 177.746 128.679 179.205C128.679 180.663 128.911 182.017 129.375 183.267C129.839 184.517 130.554 185.526 131.52 186.293C132.486 187.06 133.717 187.443 135.213 187.443ZM150.217 198.182V168.182H153.455V171.648H153.853C154.099 171.269 154.44 170.786 154.876 170.199C155.321 169.602 155.955 169.072 156.779 168.608C157.612 168.134 158.739 167.898 160.16 167.898C161.997 167.898 163.616 168.357 165.018 169.276C166.419 170.194 167.513 171.496 168.299 173.182C169.085 174.867 169.478 176.856 169.478 179.148C169.478 181.458 169.085 183.461 168.299 185.156C167.513 186.842 166.424 188.149 165.032 189.077C163.64 189.995 162.035 190.455 160.217 190.455C158.815 190.455 157.693 190.223 156.85 189.759C156.007 189.285 155.359 188.75 154.904 188.153C154.45 187.547 154.099 187.045 153.853 186.648H153.569V198.182H150.217ZM153.512 179.091C153.512 180.739 153.754 182.192 154.237 183.452C154.719 184.702 155.425 185.682 156.353 186.392C157.281 187.093 158.417 187.443 159.762 187.443C161.164 187.443 162.333 187.074 163.271 186.335C164.218 185.587 164.928 184.583 165.401 183.324C165.884 182.055 166.126 180.644 166.126 179.091C166.126 177.557 165.889 176.174 165.415 174.943C164.951 173.703 164.246 172.723 163.299 172.003C162.362 171.274 161.183 170.909 159.762 170.909C158.398 170.909 157.253 171.255 156.325 171.946C155.397 172.628 154.696 173.584 154.222 174.815C153.749 176.037 153.512 177.462 153.512 179.091ZM183.739 190.455C181.637 190.455 179.824 189.991 178.299 189.062C176.784 188.125 175.614 186.818 174.79 185.142C173.976 183.456 173.569 181.496 173.569 179.261C173.569 177.027 173.976 175.057 174.79 173.352C175.614 171.638 176.76 170.303 178.228 169.347C179.705 168.381 181.429 167.898 183.398 167.898C184.535 167.898 185.657 168.087 186.765 168.466C187.873 168.845 188.881 169.46 189.79 170.312C190.7 171.155 191.424 172.273 191.964 173.665C192.504 175.057 192.773 176.771 192.773 178.807V180.227H175.955V177.33H189.364C189.364 176.098 189.118 175 188.626 174.034C188.143 173.068 187.451 172.306 186.552 171.747C185.662 171.188 184.611 170.909 183.398 170.909C182.063 170.909 180.908 171.241 179.933 171.903C178.967 172.557 178.223 173.409 177.702 174.46C177.182 175.511 176.921 176.638 176.921 177.841V179.773C176.921 181.42 177.205 182.817 177.773 183.963C178.351 185.099 179.151 185.966 180.174 186.562C181.197 187.15 182.385 187.443 183.739 187.443C184.62 187.443 185.415 187.32 186.126 187.074C186.845 186.818 187.466 186.439 187.987 185.938C188.507 185.426 188.91 184.792 189.194 184.034L192.433 184.943C192.092 186.042 191.519 187.008 190.714 187.841C189.909 188.665 188.915 189.309 187.731 189.773C186.547 190.227 185.217 190.455 183.739 190.455ZM197.873 190V168.182H201.112V171.477H201.339C201.737 170.398 202.456 169.522 203.498 168.849C204.54 168.177 205.714 167.841 207.021 167.841C207.267 167.841 207.575 167.846 207.944 167.855C208.313 167.865 208.593 167.879 208.782 167.898V171.307C208.668 171.278 208.408 171.236 208.001 171.179C207.603 171.113 207.182 171.08 206.737 171.08C205.676 171.08 204.729 171.302 203.896 171.747C203.072 172.183 202.418 172.789 201.935 173.565C201.462 174.332 201.225 175.208 201.225 176.193V190H197.873Z" fill="#FFA500"/>
</svg>
